#!OML:ASF E:\emotionWalksFemale\Project 1\Capture day 1\Session 1\Female1.ASF
:FULLY-SPECIFIED
:DEGREES
323
root 19.4566 15.6057 27.5105 175.607 36.1782 -175.363
lowerback 3.59881 0.646445 0.33691
upperback -5.84511 1.0315 -0.555084
thorax -8.12958 0.539291 -0.891934
lowerneck -18.7178 -2.26459 -3.95018
upperneck 22.6103 -2.97668 5.14087
head 10.4876 -0.929472 2.09679
rclavicle 1.55052e-014 2.38542e-014
rhumerus 26.0862 19.1817 -59.4743
rradius 24.2054
rwrist 26.4526
rhand -6.42234 -50.7629
rfingers 7.12502
rthumb -160.574 100.187
lclavicle 1.55052e-014 2.38542e-014
lhumerus 21.7864 -4.54697 60.1432
lradius 24.6648
lwrist -38.6324
lhand -7.87229 -38.7549
lfingers 7.12502
lthumb 18.0317 -9.57079
rfemur -6.20158 -9.54327 20.9384
rtibia 56.692
rfoot -12.6941 -19.7012
rtoes -0.862973
lfemur 0.0296904 -23.0043 -26.4754
ltibia 24.5468
lfoot -13.7814 26.4842
ltoes -29.252
324
root 19.5138 15.6018 27.4144 175.543 36.0574 -175.381
lowerback 3.8416 0.642127 0.183884
upperback -6.0658 1.02657 -0.556915
thorax -8.51477 0.549049 -0.816259
lowerneck -18.3098 -2.25169 -3.95562
upperneck 22.774 -2.93321 5.06697
head 10.466 -0.913321 2.08233
rclavicle 6.59965e-014 -3.02153e-014
rhumerus 25.754 19.2764 -59.5174
rradius 24.2348
rwrist 26.538
rhand -7.19716 -49.7797
rfingers 7.12502
rthumb -161.319 101.097
lclavicle 6.59965e-014 -3.02153e-014
lhumerus 21.5986 -4.56239 60.3521
lradius 24.494
lwrist -38.9065
lhand -7.95267 -38.8143
lfingers 7.12502
lthumb 17.9544 -9.62309
rfemur -7.25585 -9.30881 21.1276
rtibia 56.1359
rfoot -13.8942 -20.2026
rtoes -0.0776938
lfemur 0.760003 -22.3179 -26.6324
ltibia 24.8726
lfoot -18.5204 24.2385
ltoes -12.2842
325
root 19.5729 15.5216 27.3373 175.372 35.9603 -175.489
lowerback 2.91809 0.559343 0.374078
upperback -5.46729 0.885663 -0.804363
thorax -7.32222 0.457192 -1.14131
lowerneck -18.3988 -2.13376 -3.90107
upperneck 22.3205 -2.84152 5.27123
head 10.316 -0.855234 2.15065
rclavicle -2.42517e-014 -5.56597e-014
rhumerus 26.5358 18.6747 -59.7279
rradius 24.172
rwrist 26.7746
rhand -7.60454 -49.7851
rfingers 7.12502
rthumb -161.711 101.055
lclavicle -2.42517e-014 -5.56597e-014
lhumerus 21.9721 -4.38734 59.581
lradius 24.9264
lwrist -38.3354
lhand -7.4614 -38.747
lfingers 7.12502
lthumb 18.427 -9.59982
rfemur -8.472 -8.97275 21.2993
rtibia 55.678
rfoot -14.9258 -20.7023
rtoes 0.720816
lfemur 1.13369 -15.6106 -26.484
ltibia 25.3207
lfoot -4.27739 25.3064
ltoes -58.9238
326
root 19.6352 15.5701 27.2332 175.156 35.8304 -175.648
lowerback 3.57515 0.570562 -0.363024
upperback -5.74183 0.875081 -0.502009
thorax -8.01693 0.505436 -0.425558
lowerneck -18.4238 -2.17648 -4.20866
upperneck 22.6638 -2.7433 5.01697
head 10.4404 -0.860636 2.13139
rclavicle 1.78906e-014 -1.59028e-014
rhumerus 26.2283 18.9818 -59.2402
rradius 24.3285
rwrist 26.8842
rhand -7.01628 -50.3689
rfingers 7.12502
rthumb -161.145 100.525
lclavicle 1.78906e-014 -1.59028e-014
lhumerus 21.421 -4.3266 60.1088
lradius 24.8521
lwrist -38.4039
lhand -7.65372 -38.5515
lfingers 7.12502
lthumb 18.242 -9.38691
rfemur -9.16665 -8.45904 21.3617
rtibia 54.7872
rfoot -16.1376 -21.1097
rtoes 1.21421
lfemur 1.14268 -19.0111 -26.7252
ltibia 25.577
lfoot -15.0002 23.9114
ltoes -33.8227
327
root 19.6945 15.5946 27.1343 175.001 35.7712 -175.728
lowerback 3.62208 0.628969 -0.287644
upperback -5.7631 0.944323 -0.749588
thorax -8.06205 0.527177 -0.736416
lowerneck -18.3503 -2.19333 -3.90274
upperneck 22.7693 -2.85545 5.02506
head 10.4663 -0.878388 2.06933
rclavicle -7.33515e-014 -5.40694e-014
rhumerus 26.1406 18.7106 -59.5051
rradius 24.2269
rwrist 26.9639
rhand -6.25934 -50.5914
rfingers 7.12502
rthumb -160.417 100.375
lclavicle -7.33515e-014 -5.40694e-014
lhumerus 21.2066 -5.53632 59.2131
lradius 25.3074
lwrist -37.3534
lhand -7.80354 -38.0591
lfingers 7.12502
lthumb 18.0979 -8.88104
rfemur -9.98412 -7.79788 21.5145
rtibia 54.0046
rfoot -17.183 -21.5289
rtoes 0.779642
lfemur 2.1727 -21.9235 -27.4808
ltibia 25.5573
lfoot -19.6307 23.2204
ltoes -12.5864
328
root 19.7566 15.5207 27.0533 174.817 35.776 -175.872
lowerback 3.29496 0.72504 -0.371486
upperback -5.58035 1.05448 -0.899064
thorax -7.67094 0.580095 -0.848019
lowerneck -18.4548 -2.22185 -3.77021
upperneck 22.8657 -2.93663 5.04307
head 10.524 -0.897361 2.0434
rclavicle -1.41137e-014 8.74653e-015
rhumerus 26.2948 18.9384 -58.9165
rradius 24.4479
rwrist 26.0568
rhand -6.07341 -50.6968
rfingers 7.12502
rthumb -160.238 100.288
lclavicle -1.41137e-014 8.74653e-015
lhumerus 21.3435 -4.89145 59.592
lradius 25.4495
lwrist -38.2573
lhand -7.58318 -38.2908
lfingers 7.12502
lthumb 18.3099 -9.1325
rfemur -11.0266 -7.09333 21.6574
rtibia 53.0757
rfoot -17.348 -22.1514
rtoes -1.78367
lfemur 2.74054 -18.5392 -27.7278
ltibia 25.8754
lfoot -10.2988 26.4417
ltoes -50.5953
329
root 19.8206 15.496 26.9679 174.643 35.6861 -176.156
lowerback 3.02554 0.727528 -0.746512
upperback -5.46511 1.03145 -0.929589
thorax -7.39612 0.589054 -0.660394
lowerneck -18.4655 -2.21363 -3.90642
upperneck 22.9073 -2.88186 5.0352
head 10.5403 -0.88484 2.0721
rclavicle -3.10104e-014 4.77083e-015
rhumerus 26.4593 19.0634 -58.5677
rradius 24.6038
rwrist 25.7735
rhand -6.1521 -50.2735
rfingers 7.12502
rthumb -160.314 100.703
lclavicle -3.10104e-014 4.77083e-015
lhumerus 21.7277 -5.36051 59.1986
lradius 25.0119
lwrist -37.5688
lhand -7.78114 -38.2185
lfingers 7.12502
lthumb 18.1194 -9.04249
rfemur -12.0339 -6.48626 21.6221
rtibia 52.1409
rfoot -17.7309 -22.5336
rtoes 4.25575
lfemur 3.24436 -17.2963 -28.0424
ltibia 25.914
lfoot -7.83208 26.8448
ltoes -55.5664
330
root 19.8803 15.5703 26.8641 174.628 35.5238 -176.291
lowerback 3.0324 0.700543 -0.82931
upperback -5.67136 0.994199 -1.08207
thorax -7.62098 0.577291 -0.774876
lowerneck -18.0662 -2.16441 -3.78144
upperneck 22.8676 -2.85836 5.08451
head 10.4473 -0.855798 2.07332
rclavicle 2.90226e-014 -1.43125e-014
rhumerus 25.9937 18.7231 -59.2411
rradius 24.5135
rwrist 26.5297
rhand -6.29505 -49.8471
rfingers 7.12502
rthumb -160.451 101.116
lclavicle 2.90226e-014 -1.43125e-014
lhumerus 21.4167 -6.43988 58.4535
lradius 25.1711
lwrist -36.4899
lhand -7.84404 -38.1705
lfingers 7.12502
lthumb 18.0589 -8.98888
rfemur -12.7488 -5.88796 21.6151
rtibia 51.0908
rfoot -18.7379 -22.4927
rtoes 0.416809
lfemur 3.81236 -22.0279 -28.696
ltibia 25.576
lfoot -20.9785 23.4285
ltoes -12.1307
331
root 19.9422 15.5596 26.7751 174.584 35.4133 -176.337
lowerback 3.19225 0.745052 -1.00728
upperback -5.91664 1.05208 -1.08281
thorax -7.98237 0.622734 -0.690459
lowerneck -17.6792 -2.18034 -3.7578
upperneck 23.0007 -2.85214 4.97063
head 10.4192 -0.859133 2.0336
rclavicle 1.39149e-014 2.14687e-014
rhumerus 25.4082 18.8551 -59.2977
rradius 24.6331
rwrist 26.5986
rhand -6.32874 -50.425
rfingers 7.12502
rthumb -160.484 100.535
lclavicle 1.39149e-014 2.14687e-014
lhumerus 20.9862 -5.93689 59.1444
lradius 25.0746
lwrist -37.4618
lhand -7.88506 -38.4693
lfingers 7.12502
lthumb 18.0194 -9.28407
rfemur -13.5208 -5.15094 21.7382
rtibia 50.0185
rfoot -19.7305 -22.3837
rtoes 2.3671
lfemur 4.04763 -21.4029 -28.8961
ltibia 25.4446
lfoot -17.7508 25.273
ltoes -28.0783
332
root 20.0042 15.5245 26.6948 174.467 35.2786 -176.467
lowerback 2.55858 0.744892 -0.853543
upperback -5.56204 1.04803 -1.35768
thorax -7.22261 0.598955 -1.04323
lowerneck -17.6389 -2.15274 -3.66606
upperneck 22.6342 -2.89438 5.16613
head 10.2827 -0.857348 2.07549
rclavicle -3.81667e-014 3.33958e-014
rhumerus 25.8876 18.5135 -59.4149
rradius 24.5086
rwrist 26.4553
rhand -6.41693 -50.7396
rfingers 7.12502
rthumb -160.568 100.211
lclavicle -3.81667e-014 3.33958e-014
lhumerus 21.4793 -5.08801 59.2975
lradius 24.922
lwrist -38.4262
lhand -7.94914 -38.6088
lfingers 7.12502
lthumb 17.9578 -9.41781
rfemur -14.2784 -4.54593 21.7917
rtibia 48.9276
rfoot -20.5215 -22.1427
rtoes 5.05953
lfemur 4.82596 -17.2578 -28.7454
ltibia 25.2598
lfoot -9.56378 26.5932
ltoes -53.4323
333
root 20.0654 15.5903 26.593 174.328 35.0682 -176.617
lowerback 2.27762 0.694017 -0.735378
upperback -5.40504 0.976772 -1.62051
thorax -6.8861 0.549699 -1.36893
lowerneck -17.5404 -2.11055 -3.52118
upperneck 22.3988 -2.91437 5.31527
head 10.1805 -0.841917 2.09765
rclavicle 2.5842e-014 -3.65764e-014
rhumerus 26.2439 18.1115 -59.9221
rradius 24.1407
rwrist 26.7231
rhand -6.8011 -50.7889
rfingers 7.12502
rthumb -160.938 100.125
lclavicle 2.5842e-014 -3.65764e-014
lhumerus 21.7364 -5.21734 58.8164
lradius 24.918
lwrist -38.2997
lhand -7.91969 -38.4807
lfingers 7.12502
lthumb 17.9861 -9.29233
rfemur -14.5431 -3.8573 21.6995
rtibia 47.4241
rfoot -21.3461 -21.6738
rtoes 8.4773
lfemur 5.26257 -20.3618 -29.308
ltibia 25.0635
lfoot -18.9451 23.9885
ltoes -22.7959
334
root 20.1277 15.5861 26.5037 174.139 34.7764 -176.81
lowerback 2.95722 0.687372 -1.56871
upperback -5.83668 0.934174 -1.25533
thorax -7.76585 0.594438 -0.539822
lowerneck -17.2979 -2.1327 -3.75661
upperneck 22.8109 -2.77872 4.94672
head 10.2734 -0.832969 2.03325
rclavicle 1.31198e-014 -3.49861e-014
rhumerus 25.7358 19.0709 -59.1106
rradius 24.3616
rwrist 26.1451
rhand -7.15237 -50.7932
rfingers 7.12502
rthumb -161.276 100.088
lclavicle 1.31198e-014 -3.49861e-014
lhumerus 21.1092 -4.41179 60.0253
lradius 24.3559
lwrist -39.3872
lhand -8.0692 -38.8606
lfingers 7.12502
lthumb 17.8423 -9.65906
rfemur -15.0562 -3.04726 21.5908
rtibia 45.8517
rfoot -21.2165 -22.1973
rtoes 8.9199
lfemur 5.8766 -20.3793 -29.6688
ltibia 24.8818
lfoot -19.8794 23.3578
ltoes -16.2539
335
root 20.19 15.5567 26.4155 173.935 34.486 -177.082
lowerback 3.15621 0.652321 -1.84954
upperback -5.98211 0.865064 -1.34561
thorax -8.04309 0.580269 -0.47808
lowerneck -17.1451 -2.1035 -3.80545
upperneck 22.8835 -2.73508 5.01139
head 10.27 -0.80554 2.07293
rclavicle 6.2816e-014 1.11319e-014
rhumerus 25.2886 19.4229 -58.9589
rradius 24.669
rwrist 25.7824
rhand -7.06213 -50.4601
rfingers 7.12502
rthumb -161.189 100.43
lclavicle 6.2816e-014 1.11319e-014
lhumerus 20.9069 -4.57735 59.9384
lradius 24.244
lwrist -39.2092
lhand -7.94492 -38.9932
lfingers 7.12502
lthumb 17.9618 -9.80263
rfemur -15.6592 -2.5842 21.497
rtibia 43.7033
rfoot -17.6165 -24.9719
rtoes -5.60493
lfemur 6.18666 -20.1312 -29.9743
ltibia 25.0714
lfoot -20.5859 22.4895
ltoes -11.5119
336
root 20.251 15.5626 26.3286 173.765 34.2661 -177.305
lowerback 2.34424 0.650583 -1.7002
upperback -5.5155 0.870299 -1.671
thorax -7.05934 0.55419 -0.877262
lowerneck -17.1314 -2.07309 -3.68217
upperneck 22.3282 -2.78696 5.21132
head 10.0716 -0.811976 2.10556
rclavicle -1.13705e-013 -5.24792e-014
rhumerus 25.656 18.9143 -59.1444
rradius 24.6595
rwrist 25.8666
rhand -6.54766 -50.7969
rfingers 7.12502
rthumb -160.694 100.141
lclavicle -1.13705e-013 -5.24792e-014
lhumerus 21.5096 -4.62331 59.5314
lradius 24.2775
lwrist -38.885
lhand -7.65526 -38.7053
lfingers 7.12502
lthumb 18.2405 -9.54051
rfemur -15.945 -1.85294 21.345
rtibia 41.7549
rfoot -17.6323 -25.4333
rtoes -7.38273
lfemur 6.54835 -19.63 -30.1542
ltibia 25.1227
lfoot -20.4355 21.9203
ltoes -11.1853
